<?xml version="1.0" encoding="utf-8"?>
<!-- Generator: Adobe Illustrator 18.0.0, SVG Export Plug-In . SVG Version: 6.00 Build 0)  -->
<!DOCTYPE svg PUBLIC "-//W3C//DTD SVG 1.1 Tiny//EN" "http://www.w3.org/Graphics/SVG/1.1/DTD/svg11-tiny.dtd">
<svg version="1.1" baseProfile="tiny" id="Layer_1" xmlns="http://www.w3.org/2000/svg" xmlns:xlink="http://www.w3.org/1999/xlink"
	 x="0px" y="0px" viewBox="0 0 140 28" xml:space="preserve">
<g>
	<g>
		<path fill="#FFFFFF" d="M18.4,8.1c0-5.4-3.5-7.9-10.7-7.9c-3,0-5.3,0.2-6.7,0.3c0,0-1,0.1-1,0.8v25.2c0,0,0.6,0.6,1.3,0.6h2.8
			c0,0,0.9,0.1,0.9-0.6V17h2.8c0,0,0.7-0.1,1,0.5l4.5,9.2c0,0,0.3,0.3,1,0.3h4.5c0,0,0.7,0.3,0.4-0.3l-5.5-10.9c0,0-0.3-0.6-0.3-0.6
			c0,0,0,0,0,0c0,0,0,0,0.7-0.2C16.3,14.3,18.4,11.7,18.4,8.1 M12.9,8.1c0,2.6-1.9,3.9-4.8,3.9H5.8c0,0-0.8,0.6-0.8-0.1V5.2
			c0,0,0-0.7,0.4-0.7c0.3,0,1.3-0.2,2.7-0.2C11.1,4.3,12.9,5.1,12.9,8.1"/>
	</g>
	<path fill="#FFFFFF" d="M139.1,27c0,0,0.9,0.1,0.9-0.6V1c0,0,0-1-0.7-1h-3.1c0,0-1.2,0.3-1.2,1v9.4c0,0,0,1.2,0,1.9v6.6
		c0,0-0.2,0.6-0.3,0.6c0,0,0,0,0,0c0,0,0,0-0.2-0.6c-2.6-5.8-6.3-12.4-9.5-18.1c0,0-1.3-0.7-2-0.7h-3.8c0,0-1.1,0.3-1.1,1v25.4
		c0,0,0.4,0.6,1.1,0.6h2.9c0,0,2,0.1,2-0.6v-9.6c0,0,0-1,0-1.7V8.5c0,0-0.1-0.5,0-0.5c0,0-0.1,0,0,0c0,0-0.2,0,0.1,0.6
		c1.8,3.8,4.6,8.7,9.7,18.1c0,0,1.6,0.3,2.3,0.3H139.1z"/>
	<path fill="#FFFFFF" d="M103.1,27.3c7.4,0,9.9-3.4,9.9-11.4V1c0,0-0.3-1-1-1h-3.3c0,0-0.7,0.3-0.7,1v16c0,4.4-1.6,5.7-5,5.7
		c-3.3,0-5-1.5-5-5.7V1c0,0,0.2-1-0.5-1h-3c0,0-1.5,0.3-1.5,1v15.7C93,24.4,96.4,27.3,103.1,27.3z"/>
	<path fill="#FFFFFF" d="M60.6,0c0,0-0.7,0.1-1,0.8l-2.5,5.6L55,12h0c0,0,0,0.4-0.3-0.2l-2-5.1l-2.4-6c0,0-0.3-0.7-1-0.7h-3.8
		c0,0-1.7,0.1-1.4,0.8l7.6,15.6c0,0,0.3,0.7,0.3,1.4v8.6c0,0,0.4,0.6,1.1,0.6h3.8c0,0,1.2,0.1,1.2-0.6v-8.6c0,0-0.1-0.7,0.2-1.3
		l7.7-15.7c0,0-0.8-0.8-1.5-0.8H60.6z"/>
	<path fill="#FFFFFF" d="M84.1,16c0,0-1.1,0.3-1.1,1v4.5c0,0,0.2,0.7-0.1,0.8c-0.3,0.1-1.2,0.4-2.4,0.4c-5.1,0-8.6-3-8.6-9
		c0-6.2,3.8-9.1,8.9-9.1c2.7,0,5.3,0.4,7,1.1L88,1.9c0,0,0-0.7-0.6-1c-0.9-0.4-4-0.9-7-0.9c-8.9,0-13.7,5.7-13.7,14.1
		c0,8.1,4.4,13.2,13.5,13.2c3.2,0,7.7-1.8,7.7-2.5V17c0,0-0.1-1-0.8-1H84.1z"/>
	<g>
		<path fill="#FFFFFF" d="M30.1,16l1.3-5.9L33,3h0.1c0,0,0.1,1.4,0.3,2l1.4,5.8l1.4,5.2h5.5L36.9,0.7c0,0-0.2-0.7-0.9-0.7h-5.6
			c0,0-0.7,0-0.9,0.7L24.9,16H30.1z"/>
		<path fill="#FFFFFF" d="M44.9,25.9L43.5,21h-5.7l1.3,5.3l0.1,0.3c0,0,0.1,0.3,0.8,0.3h4.5C44.4,27,45.1,26.6,44.9,25.9z"/>
		<path fill="#FFFFFF" d="M23,21l-1.4,4.9c0,0-0.2,1.1,0.5,1.1h4.3c0,0,0.7-0.4,0.9-1.1l1.2-4.9H23z"/>
	</g>
</g>
</svg>
